HIERARCHY
ROOT Hips
{
  OFFSET -22.6144 97.2465 46.2597
  CHANNELS 6 Xposition Yposition Zposition Zrotation Xrotation Yrotation
  JOINT RightUpLeg
  {
    OFFSET -8.9458 -8.66707 0.101652
    CHANNELS 3 Zrotation Xrotation Yrotation
    JOINT RightLeg
    {
      OFFSET 0 -44.4227 1.3727
      CHANNELS 3 Zrotation Xrotation Yrotation
      JOINT RightFoot
      {
        OFFSET 0.253549 -42.0924 -1.46059
        CHANNELS 3 Zrotation Xrotation Yrotation
        JOINT RightToes
        {
          OFFSET 0.04 -4.41509 8.4991
          CHANNELS 3 Zrotation Xrotation Yrotation
          End Site
          {
            OFFSET -0.08 -0.137448 9.77979
          }
        }
      }
    }
  }
  JOINT Spine
  {
    OFFSET 0 11.8905 0
    CHANNELS 3 Zrotation Xrotation Yrotation
    JOINT Spine1
    {
      OFFSET 0 25.6574 0.127663
      CHANNELS 3 Zrotation Xrotation Yrotation
      JOINT HEad
      {
        OFFSET 0 8.73416 0.011341
        CHANNELS 3 Zrotation Xrotation Yrotation
        End Site
        {
          OFFSET -0.29 12.7742 2.51395
        }
      }
      JOINT LeftShoulder1
      {
        OFFSET 8.99 -0.362252 -0.22
        CHANNELS 3 Zrotation Xrotation Yrotation
        JOINT LeftArm
        {
          OFFSET 10.2827 -0.00338 0.322123
          CHANNELS 3 Zrotation Xrotation Yrotation
          JOINT LeftForeArm
          {
            OFFSET 32.7669 0.099144 -1.42434
            CHANNELS 3 Zrotation Xrotation Yrotation
            JOINT LeftHand
            {
              OFFSET 27.5643 0.085362 1.02216
              CHANNELS 3 Zrotation Xrotation Yrotation
              End Site
              {
                OFFSET 16.7443 -0.6 1.50291
              }
            }
          }
        }
      }
      JOINT RightShoulder
      {
        OFFSET -8.99 -0.362252 -0.22
        CHANNELS 3 Zrotation Xrotation Yrotation
        JOINT RightArm
        {
          OFFSET -10.2827 -0.00338 0.322123
          CHANNELS 3 Zrotation Xrotation Yrotation
          JOINT RightForeArm
          {
            OFFSET -32.8971 0.099144 -1.42434
            CHANNELS 3 Zrotation Xrotation Yrotation
            JOINT RightHand
            {
              OFFSET -27.4921 0.085362 1.02216
              CHANNELS 3 Zrotation Xrotation Yrotation
              End Site
              {
                OFFSET -16.6312 -0.6 1.50291
              }
            }
          }
        }
      }
    }
  }
  JOINT LeftUpLeg
  {
    OFFSET 8.9458 -8.66707 0.101652
    CHANNELS 3 Zrotation Xrotation Yrotation
    JOINT LeftLeg
    {
      OFFSET 0 -44.4227 1.3727
      CHANNELS 3 Zrotation Xrotation Yrotation
      JOINT LeftFoot
      {
        OFFSET -0.253549 -42.0924 -1.46059
        CHANNELS 3 Zrotation Xrotation Yrotation
        JOINT LeftToes
        {
          OFFSET -0.04 -4.41509 8.4991
          CHANNELS 3 Zrotation Xrotation Yrotation
          End Site
          {
            OFFSET 0.08 -0.047448 9.77979
          }
        }
      }
    }
  }
}
MOTION
Frames:	21
Frame Time:	0.0166667
-52.7799 85.43 48.8807 0.13605 13.1655 -167.302 -22.0166 -34.636 5.20035 1.5034 37.8411 2.49457 20.3479 11.3972 -1.61423 0.0462048 0.000533403 0.662642 -0.600814 8.35662 -7.2836 -2.8178 16.6142 -13.3163 15.7251 -4.8438 -13.9204 0 1.59028e-015 -0 -91.1318 -3.83544 -73.5846 -34.8242 52.6462 -73.1132 7.21815 19.4659 -2.26649 30.2858 -5.80086 -20.3329 69.8106 -61.5512 27.6343 -16.4415 66.2536 152.84 -29.7646 18.5273 0.967292 20.6816 -8.57452 -11.9083 -33.0777 59.5469 32.4087 5.76687 16.8586 -5.72401 -1.32437e-009 1.5601e-007 -4.86989e-009 
-51.7322 85.9807 48.8947 0.399357 12.834 -166.684 -21.1603 -34.5951 7.30886 2.24949 37.6881 2.26485 21.1745 10.7103 -1.74326 0.0462048 0.000533403 0.662642 -0.630062 8.4513 -7.46808 -2.70576 16.8307 -13.7176 15.599 -3.90712 -14.062 -1.98785e-016 -1.59028e-015 -0 -84.4085 -0.724237 -75.6581 -28.1703 45.1318 -74.4416 7.21815 19.4659 -2.26649 30.2551 -5.62395 -19.8056 69.5256 -60.0878 26.5784 -17.2089 65.3234 153.279 -29.4071 18.7533 0.104724 21.3032 -8.48016 -11.843 -29.8045 57.9157 30.0846 5.65713 18.9148 -5.44146 -1.32437e-009 1.5601e-007 -4.86989e-009 
-50.5764 86.739 48.7141 0.687118 12.2858 -165.737 -20.6289 -34.4708 9.0187 3.16359 37.8685 2.34518 21.8891 9.04709 -1.64367 0.0462048 0.000533403 0.662642 -0.487284 8.46997 -7.64997 -2.44789 16.865 -14.1273 15.4521 -2.96643 -14.4037 -1.98785e-016 1.59028e-015 -1.59028e-015 -78.9363 1.43792 -77.0876 -24.0212 38.7536 -73.8933 7.21815 19.4659 -2.26649 30.0714 -5.44434 -19.3482 69.7737 -58.8225 26.3096 -17.6652 64.5395 153.288 -29.0443 18.9701 -0.743158 21.8902 -8.68102 -11.7213 -25.9389 56.2354 26.5846 4.79381 21.3172 -4.96409 -1.32437e-009 1.5601e-007 -4.8699e-009 
-49.3336 87.6884 48.3543 0.936497 11.4903 -164.475 -20.4567 -34.2731 10.1837 4.16036 38.3802 2.66927 22.2192 6.79356 -1.35668 0.0462048 0.000533403 0.662642 -0.177048 8.42556 -7.79519 -2.10459 16.7425 -14.4718 15.3628 -2.22975 -14.995 -1.98785e-016 1.59028e-015 -0 -75.2431 2.71138 -77.6135 -21.642 34.3656 -72.9014 7.21815 19.4659 -2.26649 29.7322 -5.27082 -18.9844 70.6627 -57.8653 27.0704 -17.8183 63.9694 152.92 -28.7231 19.161 -1.51027 22.3257 -9.13203 -11.564 -21.6287 54.3746 21.9139 3.07256 23.8451 -4.20293 -1.32437e-009 1.5601e-007 -4.86989e-009 
-48.0232 88.796 47.8345 1.07518 10.4511 -162.935 -20.6737 -33.9645 10.7546 5.2047 39.1729 2.96217 22.0142 4.33433 -0.970533 0.0462048 0.000533403 0.662642 0.243928 8.32859 -7.86491 -1.75182 16.5007 -14.6689 15.3749 -1.8805 -15.8851 -1.59028e-015 -1.59028e-015 -1.59028e-015 -73.5283 3.17104 -77.1517 -20.6903 32.3902 -72.3764 7.21815 19.4659 -2.26649 29.2491 -5.108 -18.7205 72.2517 -57.2616 29.0426 -17.7116 63.5993 152.239 -28.4521 19.3223 -2.17337 22.5328 -9.74194 -11.3994 -17.2467 52.1943 16.4604 0.591251 26.1655 -3.12612 -1.32437e-009 1.5601e-007 -4.86989e-009 
-46.6621 90.0152 47.1782 1.04663 9.20363 -161.173 -21.2809 -33.4668 10.7889 6.30056 40.1245 2.85622 21.2877 1.93635 -0.578881 0.0462048 0.000533403 0.662642 0.688637 8.18534 -7.82064 -1.45709 16.1766 -14.6414 15.4814 -2.01867 -17.114 1.09332e-015 1.59028e-015 -1.19271e-015 -73.7205 2.84304 -75.7774 -21.0218 32.8847 -72.6875 7.21815 19.4659 -2.26649 28.6484 -4.96061 -18.5588 74.5548 -56.9679 32.3442 -17.4186 63.3335 151.258 -28.173 19.4645 -2.76791 22.4888 -10.3998 -11.2541 -13.2193 49.6287 10.7933 -2.37459 27.9464 -1.79992 -1.32437e-009 1.5601e-007 -4.86989e-009 
-45.2643 91.2873 46.4174 0.82654 7.80637 -159.276 -22.2236 -32.6941 10.4342 7.46049 41.0458 2.05712 20.1772 -0.282168 -0.24454 0.0462048 0.000533403 0.662642 1.06316 7.99898 -7.63233 -1.27058 15.7945 -14.3308 15.6286 -2.62782 -18.7012 -8.69683e-016 0 7.95139e-016 -75.579 1.70421 -73.6725 -22.5705 35.6405 -73.702 7.21815 19.4659 -2.26649 27.9629 -4.82994 -18.4898 77.5596 -56.8785 37.0309 -17.0388 63.0337 149.886 -27.7639 19.6097 -3.38438 22.2232 -11.0036 -11.1378 -9.85684 46.72 5.4373 -5.45093 28.9685 -0.382682 -1.32437e-009 1.5601e-007 -4.86989e-009 
-43.8441 92.5483 45.5992 0.428578 6.3328 -157.356 -23.3787 -31.6039 9.88539 8.6645 41.7199 0.483405 18.8628 -2.30475 0.00746948 0.0462048 0.000533403 0.662642 1.29766 7.77462 -7.28568 -1.21404 15.368 -13.709 15.741 -3.58176 -20.6349 -2.98177e-016 0 1.19271e-015 -78.7568 -0.283143 -71.0833 -25.3387 40.2402 -74.9002 7.21815 19.4659 -2.26649 27.2127 -4.70251 -18.4621 81.2703 -56.871 43.12 -16.6714 62.5954 147.861 -27.0992 19.7771 -4.11815 21.803 -11.4777 -11.0362 -7.27206 43.5914 0.742209 -8.28643 29.1861 0.939654 -1.32437e-009 1.5601e-007 -4.8699e-009 
-42.4191 93.7382 44.7877 -0.101355 4.86625 -155.536 -24.5705 -30.238 9.32287 9.82273 41.9676 -1.6762 17.4937 -4.12408 0.173359 0.0462048 0.000533403 0.662642 1.37374 7.52398 -6.78501 -1.27312 14.9097 -12.7821 15.7509 -4.68974 -22.8643 -3.97569e-016 9.54166e-015 -0 -82.832 -3.11926 -68.2958 -29.4467 46.0794 -75.5274 7.21815 19.4659 -2.26649 26.3787 -4.53886 -18.351 85.7234 -56.8054 50.6032 -16.3597 62.0155 144.684 -26.1598 19.9601 -4.97223 21.3101 -11.7767 -10.9169 -5.40603 40.3979 -3.12824 -10.6566 28.7119 2.03222 -1.32437e-009 1.5601e-007 -4.86989e-009 
-41.0115 94.8102 44.0597 -0.698451 3.49404 -153.944 -25.6094 -28.7332 8.85054 10.7639 41.7054 -4.00284 16.147 -5.65055 0.251226 0.0462048 0.000533403 0.662642 1.33753 7.26635 -6.14961 -1.39772 14.4405 -11.5835 15.6192 -5.7645 -25.3053 -2.64834e-031 -9.54166e-015 -1.59028e-015 -87.3409 -6.7041 -65.6098 -35.1522 52.4059 -74.7531 7.21815 19.4659 -2.26649 25.3814 -4.27343 -17.9552 90.8265 -56.4591 59.3311 -16.0022 61.3713 139.576 -25.1324 20.1136 -5.75568 20.8224 -11.8858 -10.7485 -4.10799 37.2897 -6.12977 -12.4915 27.7612 2.84714 -1.32437e-009 1.5601e-007 -4.8699e-009 
-39.6448 95.7349 43.4905 -1.29774 2.29699 -152.685 -26.3375 -27.2923 8.46097 11.2696 40.9759 -5.96993 14.8236 -6.6769 0.233828 0.0462048 0.000533403 0.662642 1.28352 7.0251 -5.40579 -1.51515 13.9935 -10.1585 15.3348 -6.68445 -27.8602 -7.95139e-016 -3.18055e-015 -0 -90.8999 -10.1884 -63.3199 -41.5204 57.5686 -73.1224 7.21815 19.4659 -2.26649 24.0794 -3.83241 -17.0325 95.9962 -55.5388 68.7436 -15.2203 60.6816 131.451 -24.4099 20.1595 -6.03318 20.3969 -11.8248 -10.5241 -3.21642 34.4074 -8.25771 -13.8245 26.5856 3.40507 -1.32437e-009 1.5601e-007 -4.86989e-009 
-38.3372 96.4964 43.1392 -1.85094 1.33379 -151.825 -26.6639 -26.1289 8.04479 11.1465 39.9321 -7.10354 13.4891 -6.92067 0.115807 0.0462048 0.000533403 0.662642 1.31318 6.82291 -4.57977 -1.55427 13.6093 -8.55285 14.9009 -7.42462 -30.4441 7.95139e-016 0 -1.59028e-015 -91.6749 -12.0782 -61.4297 -44.8783 59.893 -74.1394 7.21815 19.4659 -2.26649 22.2919 -3.16804 -15.3659 99.9962 -53.925 77.7829 -13.2863 59.6753 118.964 -24.4788 19.9779 -5.10837 20.0627 -11.6628 -10.2786 -2.6191 31.907 -9.48387 -14.7106 25.4082 3.75141 -1.32437e-009 1.5601e-007 -4.8699e-009 
-37.0946 97.0823 43.0342 -2.33717 0.624738 -151.369 -26.5828 -25.4075 7.44572 10.3005 38.7794 -7.12416 12.146 -6.12316 -0.0915433 0.0462048 0.000533403 0.662642 1.48214 6.67736 -3.69618 -1.4724 13.3267 -6.81226 14.3265 -8.04624 -32.9999 2.38542e-015 9.54166e-015 3.18055e-015 -92.3712 -13.8557 -59.8527 -47.5923 61.8947 -75.2773 7.21815 19.4659 -2.26649 19.8463 -2.299 -12.8382 86.412 -48.2104 74.2265 -8.03418 46.6384 97.3615 -24.6584 19.5043 -2.72689 19.822 -11.5349 -10.0911 -2.28919 29.9981 -9.72494 -15.1608 24.3638 3.91724 -1.32438e-009 1.5601e-007 -4.86989e-009 
-35.9125 97.4809 43.1673 -2.76122 0.147734 -151.252 -26.1738 -25.1927 6.5438 8.78344 37.6862 -6.03396 10.888 -4.15965 -0.354096 0.0462048 0.000533403 0.662642 1.77587 6.59777 -2.78313 -1.27243 13.1712 -4.99567 13.633 -8.654 -35.4885 -1.76556e-031 -3.18055e-015 -3.18055e-015 -92.9893 -15.3894 -58.6688 -49.5622 63.5684 -76.6369 7.21815 19.4659 -2.26649 16.6573 -1.33631 -9.50391 58.3968 -36.4811 62.9298 -6.79907 16.4436 71.8243 -24.3132 18.3429 3.17143 19.6622 -11.6368 -10.0709 -2.30448 28.9529 -8.84344 -15.1155 23.4583 3.89931 -1.32437e-009 1.5601e-007 -4.86989e-009 
-34.784 97.6849 43.497 -3.146 -0.147519 -151.346 -25.5856 -25.4266 5.3287 6.80204 36.7358 -4.13288 9.88133 -1.14639 -0.627851 0.0462048 0.000533403 0.662642 2.11852 6.58192 -1.87994 -1.00186 13.1441 -3.18987 12.8722 -9.33994 -37.8635 -1.59028e-015 6.36111e-015 -6.36111e-015 -93.5585 -16.6101 -57.8942 -50.9149 64.9841 -78.1562 7.21815 19.4659 -2.26649 12.83 -0.463751 -5.64108 36.8488 -26.4717 57.1095 -11.2977 -10.8213 44.9554 -25.2779 15.7901 14.9663 19.5742 -12.1766 -10.3263 -2.85855 29.0405 -6.68026 -14.4652 22.5703 3.66392 -1.32437e-009 1.5601e-007 -4.8699e-009 
-33.6786 97.7623 43.9089 -3.49598 -0.393363 -151.504 -24.9716 -25.9637 3.92313 4.67002 35.8497 -1.93973 9.22444 2.53702 -0.897217 0.0462048 0.000533403 0.662642 2.42348 6.61604 -1.04077 -0.729695 13.2192 -1.51453 12.1324 -10.1332 -40.0415 0 0 -0 -94.1081 -17.5302 -57.4719 -51.9468 66.2421 -79.6234 7.21815 19.4659 -2.26649 8.7277 0.146811 -1.73131 23.727 -22.0994 53.8218 -12.9029 -26.4268 21.4357 -26.5462 11.8431 30.7185 19.578 -13.1712 -10.9073 -4.19799 30.0447 -3.14282 -13.206 21.6424 3.26001 -1.32437e-009 1.5601e-007 -4.86989e-009 
-32.5842 97.8169 44.291 -3.80364 -0.701626 -151.582 -24.4572 -26.5999 2.53814 2.74646 34.9358 -0.0158033 8.87473 6.26996 -1.14926 0.0462048 0.000533403 0.662642 2.64123 6.6776 -0.332104 -0.512188 13.3495 -0.110301 11.5242 -10.9732 -41.8923 -0 0 3.18055e-015 -94.646 -18.2316 -57.2792 -53.0051 67.4295 -80.7514 7.21815 19.4659 -2.26649 4.91021 0.439626 1.676 17.8398 -22.8014 51.401 -5.14909 -34.0448 9.17347 -25.2897 8.53805 45.6558 19.6851 -14.5057 -11.7534 -6.50515 31.5383 1.6745 -11.4263 20.6172 2.76552 -1.32438e-009 1.5601e-007 -4.86989e-009 
-31.5409 97.9177 44.6121 -4.06313 -1.05949 -151.461 -24.1089 -27.1304 1.39278 1.31807 34.0583 1.2526 8.66616 9.32166 -1.3397 0.0462048 0.000533403 0.662642 2.77094 6.73999 0.17809 -0.367796 13.4813 0.890162 11.1439 -11.7181 -43.2591 -7.06225e-031 -6.36111e-015 -6.36111e-015 -95.1514 -18.8309 -57.1542 -54.3756 68.5857 -81.2743 7.21815 19.4659 -2.26649 1.93814 0.498894 4.14939 15.9708 -25.1929 49.635 -2.9651 -37.3648 0.719929 -22.8222 7.37028 55.2046 19.875 -16.0466 -12.6552 -9.78923 33.2821 7.38853 -9.30311 19.3871 2.22952 -1.32437e-009 1.5601e-007 -4.8699e-009 
-30.585 98.1085 44.8584 -4.25273 -1.41442 -151.102 -23.8874 -27.4588 0.648135 0.504888 33.382 1.7485 8.36383 11.0888 -1.41164 0.0462048 0.000533403 0.662642 2.85163 6.78792 0.445441 -0.272379 13.5767 1.40196 11.0314 -12.1884 -44.0092 -1.59028e-015 3.18055e-015 -3.18055e-015 -95.5816 -19.4334 -56.9399 -56.2052 69.6847 -81.0182 7.21815 19.4659 -2.26649 0.182697 0.467363 5.47227 16.1077 -26.7875 48.688 -2.66594 -38.6523 -1.08948 -22.4018 6.90616 57.9663 20.1105 -17.5725 -13.2589 -13.7209 35.0489 13.2505 -7.22709 18.0173 1.75616 -1.32437e-009 1.5601e-007 -4.8699e-009 
-29.7431 98.3959 45.0346 -4.35033 -1.69816 -150.551 -23.6986 -27.5659 0.365669 0.270924 33.0209 1.55991 7.81855 11.3101 -1.33599 0.0462048 0.000533403 0.662642 2.92715 6.81971 0.465957 -0.181556 13.6249 1.42265 11.1439 -12.2373 -44.095 1.59028e-015 -6.36111e-015 -9.54166e-015 -95.8869 -20.0859 -56.5291 -58.4381 70.6404 -79.9837 7.21815 19.4659 -2.26649 -0.253711 0.445689 5.61922 17.8898 -27.0543 48.7455 -3.32669 -38.0055 3.75012 -24.7484 6.38516 54.6039 20.3285 -18.8426 -13.1743 -17.6678 36.7726 18.295 -5.67897 16.7984 1.45337 -1.32437e-009 1.5601e-007 -4.8699e-009 
-29.029 98.7525 45.1602 -4.34539 -1.85715 -149.903 -23.458 -27.4704 0.489722 0.483256 32.953 0.872207 7.04652 10.1167 -1.14354 0.0462048 0.000533403 0.662642 3.02087 6.8428 0.279921 -0.0593934 13.6409 1.04242 11.3625 -11.8221 -43.587 1.59028e-015 0 -9.54166e-015 -96.0287 -20.7468 -55.8946 -60.786 71.3395 -78.3975 7.21815 19.4659 -2.26649 0.475891 0.449299 4.70471 21.9897 -27.0428 49.9239 -6.00531 -34.496 13.4012 -28.1125 6.88076 46.5506 20.4549 -19.6735 -12.1621 -20.9626 38.5634 21.693 -5.051 16.1106 1.38127 -1.32437e-009 1.5601e-007 -4.8699e-009 
